<mxfile host="app.diagrams.net" modified="2024-03-11T12:40:56.641Z" agent="Mozilla/5.0 (Macintosh; Intel Mac OS X 10_15_7) AppleWebKit/605.1.15 (KHTML, like Gecko) Version/16.5 Safari/605.1.15" version="24.0.4" etag="DwftWJ16kAWJWmtzlgn0" type="github">
  <diagram name="Page-1" id="NO4pjHYMSnaz8goweDqT">
    <mxGraphModel>
      <root>
        <mxCell id="0" />
        <mxCell id="1" parent="0" />
      </root>
    </mxGraphModel>
  </diagram>
</mxfile>
